PathFileType	4	(X/Y/Z)	C:/Users/opensim2020/Desktop/walking_exp_matlab/subject03_walking06_straight_01.trc																																																																																																																																		
DataRate	CameraRate	NumFrames	NumMarkers	Units	OrigDataRate	OrigDataStartFrame	OrigNumFrames																																																																																																																														
100	100	4	44	mm	100	488	362																																																																																																																														
Frame#	Time	LFHD			RFHD			LBHD			RBHD			C7			T10			CLAV			STRN			RBAK			LSHO			LUPA			LELB			LFRM			LWRA			LWRB			LFIN			RSHO			RUPA			RELB			RFRM			RWRA			RWRB			RFIN			LASI			RASI			LPSI			RPSI			LTHI			LKNE			LTIB			LANK			LHEE			LTOE			RTHI			RKNE			RTIB			RANK			RHEE			RTOE			*39			*40			*41			*42			*43		
		X1	Y1	Z1	X2	Y2	Z2	X3	Y3	Z3	X4	Y4	Z4	X5	Y5	Z5	X6	Y6	Z6	X7	Y7	Z7	X8	Y8	Z8	X9	Y9	Z9	X10	Y10	Z10	X11	Y11	Z11	X12	Y12	Z12	X13	Y13	Z13	X14	Y14	Z14	X15	Y15	Z15	X16	Y16	Z16	X17	Y17	Z17	X18	Y18	Z18	X19	Y19	Z19	X20	Y20	Z20	X21	Y21	Z21	X22	Y22	Z22	X23	Y23	Z23	X24	Y24	Z24	X25	Y25	Z25	X26	Y26	Z26	X27	Y27	Z27	X28	Y28	Z28	X29	Y29	Z29	X30	Y30	Z30	X31	Y31	Z31	X32	Y32	Z32	X33	Y33	Z33	X34	Y34	Z34	X35	Y35	Z35	X36	Y36	Z36	X37	Y37	Z37	X38	Y38	Z38	X39	Y39	Z39	X40	Y40	Z40	X41	Y41	Z41	X42	Y42	Z42	X43	Y43	Z43	X44	Y44	Z44
																																																																																																																																					
46	0.45	-1197.46851	1607.71289	1340.15576	-1220.45203	1607.94519	1470.77112	-1329.47229	1584.40674	1319.9696	-1348.17859	1583.87195	1449.57996	-1386.87878	1420.72754	1368.68127	-1449.90125	1112.90881	1381.54358	-1270.87476	1336.06116	1381.00366	-1239.60327	1167.58093	1382.9375	-1461.44934	1251.95959	1464.56543	-1301.64355	1372.0293	1223.09656	-1281.20129	1179.16931	1150.26685	-1248.76294	1059.89709	1146.14209	-1188.41016	947.77692	1171.71265	-1145.58728	846.8349	1224.90601	-1151.26404	839.76642	1169.75452	-1109.28113	772.26874	1196.25818	-1331.25317	1367.92676	1535.6178	-1349.05884	1149.15234	1615.15405	-1339.41602	1038.10498	1634.08337	-1321.823	901.88013	1639.84509	-1288.35278	807.3006	1608.97839	-1322.73486	801.79572	1649.8429	-1294.85559	732.62372	1644.52148	-1308.01575	927.3999	1275.68408	-1306.00806	938.50537	1511.6875	-1464.85571	973.68335	1327.505	-1462.59741	980.55316	1475.08569	-1417.8584	637.76093	1251.46265	-1444.70398	465.81381	1298.16406	-1522.62964	284.95679	1302.32117	-1553.04675	74.71564	1345.80518	-1595.09131	41.94812	1386.77698	-1403.98108	34.5617	1368.6333	-1302.33508	653.6579	1570.51062	-1228.14087	490.13727	1534.22583	-1246.63684	301.71539	1545.72888	-1249.45056	84.08833	1510.05115	-1291.37231	46.04428	1459.31714	-1110.43164	55.83431	1492.9082	NaN	NaN	NaN	NaN	NaN	NaN	NaN	NaN	NaN	NaN	NaN	NaN	NaN	NaN	NaN
47	0.46	-1191.50793	1606.74268	1340.71545	-1214.82056	1606.92957	1471.46741	-1323.55688	1583.31213	1320.49438	-1342.37354	1582.63013	1450.11243	-1381.16821	1419.86902	1369.0575	-1444.67395	1112.11499	1381.56262	-1265.28406	1334.97913	1381.5293	-1234.20996	1166.50122	1383.54968	-1456.15674	1251.08533	1464.53552	-1295.43604	1371.13049	1223.74634	-1273.71802	1178.99194	1150.40674	-1239.53479	1060.31311	1145.80286	-1177.2019	949.35828	1170.95471	-1131.99548	849.38214	1224.23047	-1138.1842	841.95953	1169.05933	-1094.66467	775.28424	1195.36914	-1326.01746	1366.7196	1536.02295	-1344.57471	1147.93164	1615.12805	-1335.37073	1036.76025	1634.10754	-1319.15417	900.46484	1639.99573	-1286.37964	805.40143	1609.24207	-1320.96375	800.41974	1650.0647	-1294.20459	730.83954	1644.77612	-1302.24683	926.74323	1275.74719	-1300.98132	937.43341	1511.99487	-1459.3335	972.58813	1327.22986	-1457.68677	979.1145	1474.84644	-1412.8031	637.28082	1251.44495	-1441.14526	465.53833	1297.84509	-1520.48853	285.2048	1302.08557	-1553.33716	75.03	1346.23535	-1595.05518	42.95667	1386.85852	-1403.72815	34.54524	1368.75928	-1297.52747	652.34369	1569.92847	-1221.92896	489.37296	1533.33801	-1235.67712	300.9064	1544.66431	-1231.70313	83.29552	1508.64148	-1272.18982	44.07098	1457.58716	-1091.69226	58.84877	1491.73669	NaN	NaN	NaN	NaN	NaN	NaN	NaN	NaN	NaN	NaN	NaN	NaN	NaN	NaN	NaN
48	0.47	-1185.60144	1605.65869	1341.56482	-1208.83911	1605.77734	1472.01514	-1317.61035	1582.18652	1321.1062	-1336.4696	1581.35071	1450.71667	-1375.36169	1418.9491	1369.49915	-1439.31042	1111.2428	1381.62732	-1259.54199	1333.87207	1382.21533	-1228.63562	1165.43677	1384.12842	-1450.74011	1250.18799	1464.55762	-1289.39636	1370.29346	1224.38916	-1266.04285	1178.7522	1150.83374	-1230.55676	1060.67004	1145.62927	-1166.17224	950.74591	1170.448	-1118.88184	851.62085	1223.32507	-1125.41943	844.01404	1168.33667	-1080.60938	778.20251	1194.35876	-1320.53162	1365.6637	1536.56287	-1339.99915	1146.7688	1615.37878	-1331.37903	1035.4856	1634.22925	-1316.30505	898.98279	1640.04883	-1284.18237	803.61206	1609.57019	-1319.19348	799.10315	1650.5332	-1293.13269	728.89636	1644.90698	-1297.19812	925.57843	1275.60681	-1295.68872	936.33258	1512.35583	-1453.6991	971.41754	1327.02979	-1452.55591	977.59595	1474.63611	-1407.4469	636.78961	1251.4657	-1437.15942	465.08344	1297.50806	-1518.24377	285.366	1301.76917	-1553.52368	75.25754	1346.58472	-1594.88391	43.85365	1386.53723	-1403.40527	34.56526	1368.90198	-1291.94153	650.66418	1569.84839	-1215.69287	488.45108	1532.45276	-1225.09082	300.10599	1543.60828	-1214.37317	82.59127	1507.17786	-1253.51416	42.55087	1455.80493	-1073.55884	61.78261	1491.02283	NaN	NaN	NaN	NaN	NaN	NaN	NaN	NaN	NaN	NaN	NaN	NaN	NaN	NaN	NaN
49	0.48	-1179.36133	1604.84058	1342.1239	-1202.85144	1604.65186	1472.80554	-1311.43396	1580.98645	1321.82837	-1330.41382	1580.03967	1451.37805	-1369.36255	1418.06445	1370.08484	-1433.84119	1110.4325	1381.71875	-1253.68567	1332.79321	1382.81885	-1223.19434	1164.27551	1384.85791	-1445.15381	1249.26868	1464.66223	-1283.23096	1369.56201	1225.1781	-1258.37463	1178.68286	1151.28247	-1221.52344	1060.87646	1145.56702	-1155.40283	951.97382	1169.86328	-1106.06567	853.84375	1222.63245	-1113.09534	845.92316	1167.68347	-1066.83203	781.03003	1193.27161	-1315.10535	1364.51147	1537.0813	-1335.28357	1145.55493	1615.55042	-1327.20264	1034.20862	1634.28955	-1313.31763	897.62482	1640.20654	-1282.03552	801.91956	1609.81079	-1317.04517	797.65021	1650.74902	-1292.41333	727.57043	1645.32605	-1290.58105	924.97058	1276.06628	-1290.35242	935.20709	1512.78992	-1447.90247	970.17853	1326.88574	-1447.28772	976.08136	1474.56348	-1401.63354	636.05383	1251.94922	-1432.97717	464.76324	1297.13	-1515.77136	285.57458	1301.24304	-1553.48254	75.53246	1346.72424	-1594.61438	44.63745	1386.04163	-1403.27026	34.29454	1368.75635	-1286.92664	649.0636	1569.50537	-1209.69434	487.5242	1531.68225	-1214.88147	299.3259	1542.56848	-1197.79175	82.19767	1505.77026	-1235.40857	41.38522	1453.82153	-1056.17322	64.52113	1490.60339	NaN	NaN	NaN	NaN	NaN	NaN	NaN	NaN	NaN	NaN	NaN	NaN	NaN	NaN	NaN
